<svg width="191" height="135" viewBox="0 0 191 135" fill="none" xmlns="http://www.w3.org/2000/svg">
<path d="M189.342 9.87125C159.938 -4.70457 122.001 1.75929 88.3362 7.61398C34.4225 16.9901 1.73061 117.681 1.73061 117.681C1.73061 117.681 81.0304 150.696 122.375 121.669C156.393 97.7867 179.459 23.7753 189.342 9.87125Z" fill="#AEBC64"/>
<path d="M189.342 9.87125L190.157 10.4506C190.327 10.2121 190.383 9.91123 190.312 9.62741C190.24 9.34359 190.048 9.10527 189.786 8.97529L189.342 9.87125ZM88.3362 7.61398L88.5076 8.59919L88.3362 7.61398ZM1.73061 117.681L0.779481 117.372C0.618575 117.867 0.865202 118.403 1.34626 118.604L1.73061 117.681ZM122.375 121.669L122.949 122.488L122.375 121.669ZM158.815 24.8061C159.364 24.7494 159.764 24.258 159.707 23.7087C159.65 23.1593 159.159 22.76 158.609 22.8167L158.815 24.8061ZM140.042 63.5976C140.594 63.5818 141.029 63.1215 141.013 62.5695C140.997 62.0174 140.537 61.5827 139.985 61.5984L140.042 63.5976ZM114.967 17.5118C115.369 17.1331 115.388 16.5002 115.009 16.0982C114.63 15.6962 113.997 15.6772 113.595 16.0559L114.967 17.5118ZM102.073 102.676C102.625 102.662 103.061 102.202 103.046 101.65C103.032 101.098 102.573 100.662 102.02 100.677L102.073 102.676ZM75.1548 40.5886C75.2073 40.0388 74.8041 39.5506 74.2543 39.4982C73.7045 39.4457 73.2163 39.8489 73.1639 40.3987L75.1548 40.5886ZM189.786 8.97529C174.88 1.58603 157.86 -0.446785 140.407 0.0816306C122.956 0.609957 104.986 3.70338 88.1649 6.62876L88.5076 8.59919C105.351 5.66988 123.182 2.60403 140.467 2.08071C157.749 1.55748 174.4 3.58065 188.898 10.7672L189.786 8.97529ZM88.1649 6.62876C74.4054 9.02166 62.0751 17.2248 51.3485 28.064C40.617 38.9081 31.4258 52.4557 23.9455 65.6707C16.4623 78.8908 10.6731 91.8112 6.75509 101.424C4.79565 106.231 3.30316 110.214 2.29991 112.997C1.79827 114.388 1.41889 115.48 1.16458 116.224C1.0374 116.597 0.941504 116.882 0.877207 117.076C0.845058 117.172 0.820809 117.246 0.804507 117.295C0.796362 117.32 0.790194 117.339 0.78603 117.352C0.78394 117.358 0.782353 117.363 0.781265 117.366C0.780713 117.368 0.780278 117.369 0.780003 117.37C0.779689 117.371 0.779481 117.372 1.73061 117.681C2.68173 117.989 2.68179 117.989 2.68198 117.989C2.6822 117.988 2.6825 117.987 2.68295 117.986C2.68386 117.983 2.68526 117.979 2.68716 117.973C2.69096 117.961 2.69675 117.943 2.70452 117.92C2.72005 117.873 2.74351 117.801 2.77487 117.707C2.83758 117.519 2.93183 117.238 3.05726 116.871C3.30815 116.136 3.6838 115.055 4.18138 113.675C5.17658 110.914 6.65933 106.957 8.60716 102.179C12.5037 92.6186 18.257 79.7804 25.686 66.6559C33.118 53.5263 42.2085 40.1432 52.77 29.4708C63.3364 18.7935 75.3102 10.8943 88.5076 8.59919L88.1649 6.62876ZM1.73061 117.681C1.34626 118.604 1.34679 118.604 1.34762 118.604C1.34829 118.605 1.34942 118.605 1.35078 118.606C1.3535 118.607 1.35741 118.608 1.36252 118.61C1.37276 118.615 1.38777 118.621 1.40752 118.629C1.44702 118.645 1.50546 118.669 1.58238 118.701C1.73621 118.763 1.96398 118.855 2.26211 118.974C2.85836 119.21 3.7361 119.553 4.86669 119.978C7.12774 120.829 10.4007 122.01 14.4565 123.336C22.5659 125.987 33.8147 129.22 46.3665 131.543C71.3917 136.175 101.92 137.252 122.949 122.488L121.8 120.851C101.485 135.113 71.6914 134.196 46.7305 129.577C34.2894 127.274 23.1293 124.067 15.0779 121.435C11.0533 120.119 7.80803 118.948 5.57086 118.107C4.45235 117.686 3.58601 117.347 3.00046 117.115C2.70768 116.999 2.48511 116.909 2.33634 116.848C2.26194 116.818 2.20602 116.795 2.16896 116.78C2.15044 116.772 2.13664 116.766 2.12762 116.763C2.12311 116.761 2.1198 116.759 2.11768 116.759C2.11664 116.758 2.11595 116.758 2.11542 116.758C2.11504 116.757 2.11497 116.757 1.73061 117.681ZM122.949 122.488C131.596 116.417 139.496 107.202 146.629 96.6403C153.767 86.0705 160.172 74.0984 165.809 62.4644C171.446 50.8307 176.328 39.5079 180.408 30.2502C184.512 20.9371 187.76 13.8226 190.157 10.4506L188.527 9.2919C185.982 12.8719 182.641 20.2229 178.578 29.4437C174.49 38.72 169.626 49.9998 164.009 61.5923C158.392 73.1845 152.034 85.0622 144.971 95.521C137.902 105.988 130.162 114.98 121.8 120.851L122.949 122.488ZM1.73061 117.681C2.18429 118.572 2.18446 118.572 2.18478 118.571C2.18509 118.571 2.18556 118.571 2.1862 118.571C2.18746 118.57 2.18934 118.569 2.19184 118.568C2.19686 118.565 2.20435 118.562 2.2143 118.556C2.2342 118.546 2.26391 118.531 2.30319 118.511C2.38177 118.471 2.49865 118.412 2.65184 118.334C2.95827 118.177 3.41003 117.947 3.99153 117.651C5.15452 117.058 6.83643 116.2 8.91226 115.14C13.0639 113.019 18.7912 110.09 25.0942 106.854C37.6979 100.383 52.6105 92.6828 61.8254 87.7742L60.8852 86.009C51.6855 90.9095 36.7857 98.6035 24.1807 105.075C17.8794 108.31 12.1533 111.239 8.00258 113.359C5.92722 114.419 4.24573 115.276 3.08312 115.869C2.50182 116.165 2.05022 116.395 1.74398 116.552C1.59086 116.63 1.47408 116.689 1.39559 116.729C1.35634 116.749 1.32667 116.764 1.30681 116.774C1.29688 116.779 1.2894 116.783 1.28441 116.786C1.28192 116.787 1.28004 116.788 1.2788 116.788C1.27817 116.789 1.2777 116.789 1.27739 116.789C1.27707 116.789 1.27693 116.789 1.73061 117.681ZM61.9454 87.6989C70.3864 81.5286 74.6038 78.8753 79.5534 74.9576C84.5359 71.0141 90.3099 65.7574 102.034 54.2725L100.635 52.8438C88.9141 64.325 83.2049 69.5169 78.3122 73.3894C73.3867 77.2879 69.337 79.8183 60.7652 86.0843L61.9454 87.6989ZM102.034 54.2725C115.506 41.0759 129.723 33.7061 140.568 29.6358C145.99 27.6008 150.567 26.3916 153.782 25.692C155.389 25.3422 156.655 25.1199 157.516 24.9855C157.946 24.9183 158.275 24.873 158.494 24.8448C158.604 24.8306 158.686 24.8208 158.74 24.8145C158.767 24.8114 158.786 24.8092 158.799 24.8078C158.805 24.8072 158.81 24.8067 158.812 24.8064C158.814 24.8063 158.815 24.8062 158.815 24.8061C158.815 24.8061 158.815 24.8061 158.815 24.8061C158.815 24.8061 158.815 24.8061 158.712 23.8114C158.609 22.8167 158.609 22.8168 158.608 22.8168C158.608 22.8169 158.607 22.8169 158.606 22.817C158.605 22.8172 158.603 22.8174 158.601 22.8176C158.596 22.8181 158.59 22.8188 158.581 22.8197C158.565 22.8216 158.541 22.8242 158.51 22.8278C158.447 22.835 158.357 22.8459 158.239 22.8612C158.002 22.8916 157.656 22.9394 157.207 23.0095C156.31 23.1496 155.005 23.379 153.357 23.7378C150.06 24.4551 145.39 25.6901 139.865 27.7633C128.817 31.9096 114.345 39.4131 100.635 52.8438L102.034 54.2725ZM100.607 54.2446C103.107 56.8931 106.877 58.7584 111.005 60.0898C115.151 61.4272 119.764 62.2585 124.051 62.7753C128.343 63.2927 132.336 63.4981 135.255 63.5744C136.715 63.6125 137.909 63.6184 138.738 63.6147C139.153 63.6129 139.478 63.6087 139.699 63.6049C139.809 63.603 139.894 63.6012 139.952 63.5999C139.981 63.5992 140.003 63.5986 140.018 63.5983C140.026 63.5981 140.031 63.5979 140.035 63.5978C140.037 63.5977 140.039 63.5977 140.04 63.5977C140.041 63.5977 140.041 63.5976 140.041 63.5976C140.042 63.5976 140.042 63.5976 140.014 62.598C139.985 61.5984 139.985 61.5984 139.985 61.5984C139.985 61.5984 139.985 61.5984 139.984 61.5984C139.984 61.5985 139.983 61.5985 139.981 61.5985C139.978 61.5986 139.973 61.5988 139.966 61.5989C139.953 61.5993 139.933 61.5998 139.906 61.6004C139.852 61.6016 139.771 61.6033 139.664 61.6052C139.451 61.6088 139.136 61.613 138.73 61.6148C137.918 61.6184 136.745 61.6126 135.307 61.575C132.431 61.4999 128.503 61.2975 124.29 60.7897C120.074 60.2813 115.599 59.4701 111.619 58.1864C107.62 56.8967 104.224 55.1624 102.062 52.8717L100.607 54.2446ZM102.312 53.7694C103.384 48.8068 105.03 41.1435 107.194 33.9794C108.275 30.3975 109.48 26.963 110.798 24.0664C112.125 21.1489 113.527 18.8677 114.967 17.5118L113.595 16.0559C111.868 17.6827 110.337 20.2504 108.977 23.2382C107.609 26.247 106.374 29.7744 105.279 33.4012C103.088 40.6545 101.427 48.3956 100.357 53.3469L102.312 53.7694ZM60.6903 87.6385C72.4078 98.071 84.7463 103.132 102.073 102.676L102.02 100.677C85.2231 101.119 73.374 96.2534 62.0203 86.1447L60.6903 87.6385ZM62.2682 87.2998C67.6291 75.3111 70.8486 63.6415 72.7282 54.9735C73.6684 50.6378 74.2744 47.0487 74.6456 44.5406C74.8312 43.2864 74.9581 42.3022 75.0388 41.6297C75.0792 41.2934 75.108 41.035 75.1268 40.8598C75.1362 40.7722 75.1432 40.7053 75.1478 40.6599C75.1501 40.6372 75.1518 40.6199 75.1529 40.6079C75.1535 40.602 75.154 40.5974 75.1543 40.5942C75.1544 40.5925 75.1546 40.5913 75.1547 40.5904C75.1547 40.5899 75.1547 40.5895 75.1548 40.5892C75.1548 40.5889 75.1548 40.5886 74.1593 40.4936C73.1639 40.3987 73.1639 40.3986 73.1639 40.3986C73.1639 40.3987 73.1639 40.3988 73.1638 40.399C73.1638 40.3994 73.1637 40.4002 73.1636 40.4014C73.1634 40.4036 73.163 40.4072 73.1625 40.4122C73.1616 40.4222 73.16 40.4376 73.1579 40.4584C73.1537 40.4999 73.1472 40.5627 73.1383 40.6463C73.1203 40.8135 73.0924 41.0635 73.0531 41.3913C72.9744 42.0467 72.8499 43.0128 72.6671 44.2478C72.3015 46.718 71.7033 50.2629 70.7737 54.5497C68.9137 63.1266 65.7312 74.656 60.4424 86.4834L62.2682 87.2998Z" fill="#0E170D"/>
</svg>
