<svg width="89" height="86" viewBox="0 0 89 86" fill="none" xmlns="http://www.w3.org/2000/svg">
<path d="M31.6703 1C27.626 6.62434 27.6318 14.7759 27.6615 22.014C27.7091 33.6054 47.3777 44 47.3777 44C47.3777 44 56.9837 28.6088 52.4332 18.9461C48.689 10.9958 34.198 3.55652 31.6703 1Z" fill="#AEBC64"/>
<path d="M87.8141 21.9794C81.7123 18.6995 73.6304 19.7636 66.4575 20.7328C54.9703 22.2848 47.2173 43.1365 47.2173 43.1365C47.2173 43.1365 63.7253 50.663 72.7154 44.8965C80.1124 40.1519 85.6074 24.8177 87.8141 21.9794Z" fill="#AEBC64"/>
<path d="M1 43.7189C4.94661 49.4122 12.6302 52.1346 19.4608 54.5289C30.3998 58.3631 46.7772 43.3071 46.7772 43.3071C46.7772 43.3071 35.4881 29.1042 24.8597 30.1588C16.1148 31.0265 4.25502 42.1924 1 43.7189Z" fill="#AEBC64"/>
<path d="M84.381 69.4781C84.4526 62.551 79.7575 55.8873 75.5685 49.9846C68.8601 40.5315 46.7925 43.3471 46.7925 43.3471C46.7925 43.3471 47.7919 61.4625 57.0735 66.747C64.7103 71.0951 80.8427 68.8416 84.381 69.4781Z" fill="#AEBC64"/>
<path d="M28.5679 85.2917C35.3762 84.0127 40.9978 78.1097 45.9717 72.8512C53.9371 64.4301 46.8774 43.3335 46.8774 43.3335C46.8774 43.3335 29.3036 47.8421 25.928 57.9751C23.1506 66.3126 28.503 81.6971 28.5679 85.2917Z" fill="#AEBC64"/>
<path d="M31.6703 1L31.8481 0.824227C31.7963 0.771892 31.7242 0.745017 31.6508 0.750763C31.5774 0.75651 31.5103 0.794294 31.4673 0.854047L31.6703 1ZM27.6615 22.014L27.9115 22.0129L27.6615 22.014ZM47.3777 44L47.2609 44.221C47.3769 44.2823 47.5204 44.2436 47.5898 44.1324L47.3777 44ZM52.4332 18.9461L52.6594 18.8396L52.6594 18.8396L52.4332 18.9461ZM33.7274 7.90668C33.7363 7.7689 33.6318 7.64999 33.494 7.6411C33.3562 7.63221 33.2373 7.7367 33.2284 7.87449L33.7274 7.90668ZM41.0879 13.2041C41.1069 13.0673 41.0115 12.9411 40.8747 12.9221C40.738 12.9031 40.6117 12.9985 40.5927 13.1353L41.0879 13.2041ZM30.6757 16.783C30.5997 16.6677 30.4447 16.6358 30.3294 16.7118C30.2141 16.7878 30.1823 16.9429 30.2583 17.0582L30.6757 16.783ZM47.8349 22.5181C47.8542 22.3814 47.759 22.2549 47.6223 22.2356C47.4856 22.2162 47.3591 22.3114 47.3398 22.4481L47.8349 22.5181ZM34.027 25.8983C33.8938 25.862 33.7564 25.9406 33.7201 26.0739C33.6839 26.2071 33.7625 26.3445 33.8957 26.3807L34.027 25.8983ZM87.8141 21.9794L88.0114 22.1329C88.0566 22.0748 88.0739 21.9997 88.0587 21.9277C88.0434 21.8557 87.9973 21.7941 87.9324 21.7592L87.8141 21.9794ZM66.4575 20.7328L66.424 20.485L66.4575 20.7328ZM47.2173 43.1365L46.9829 43.0494C46.9372 43.1723 46.9942 43.3096 47.1135 43.364L47.2173 43.1365ZM72.7154 44.8965L72.5804 44.6861L72.5804 44.6861L72.7154 44.8965ZM81.2329 24.9158C81.3707 24.9067 81.475 24.7877 81.4659 24.6499C81.4569 24.5121 81.3378 24.4078 81.2001 24.4169L81.2329 24.9158ZM76.9359 32.9018C77.074 32.9029 77.1868 32.7918 77.1879 32.6538C77.189 32.5157 77.0779 32.4029 76.9399 32.4018L76.9359 32.9018ZM72.0355 23.0423C72.14 22.952 72.1514 22.7942 72.0611 22.6897C71.9708 22.5853 71.8129 22.5738 71.7085 22.6641L72.0355 23.0423ZM68.5767 40.8008C68.7148 40.8022 68.8278 40.6914 68.8292 40.5533C68.8306 40.4153 68.7198 40.3022 68.5818 40.3008L68.5767 40.8008ZM63.4325 27.5487C63.4511 27.4119 63.3554 27.2858 63.2186 27.2672C63.0818 27.2485 62.9557 27.3443 62.9371 27.4811L63.4325 27.5487ZM1 43.7189L0.893855 43.4925C0.82722 43.5238 0.77774 43.5828 0.758601 43.6538C0.739462 43.7249 0.752609 43.8008 0.794537 43.8613L1 43.7189ZM19.4608 54.5289L19.3781 54.7648L19.4608 54.5289ZM46.7772 43.3071L46.9464 43.4911C47.0429 43.4024 47.0545 43.2542 46.9729 43.1515L46.7772 43.3071ZM24.8597 30.1588L24.8844 30.4076L24.8597 30.1588ZM8.19687 44.0917C8.07 44.0372 7.92299 44.0959 7.8685 44.2227C7.81401 44.3496 7.87268 44.4966 7.99955 44.5511L8.19687 44.0917ZM15.652 38.9284C15.5295 38.8647 15.3786 38.9124 15.3149 39.0349C15.2513 39.1574 15.2989 39.3083 15.4215 39.372L15.652 38.9284ZM15.5401 49.9379C15.4061 49.9709 15.3242 50.1064 15.3572 50.2404C15.3902 50.3745 15.5257 50.4564 15.6597 50.4234L15.5401 49.9379ZM26.6869 35.6874C26.5645 35.6234 26.4134 35.6708 26.3495 35.7932C26.2856 35.9155 26.3329 36.0666 26.4553 36.1305L26.6869 35.6874ZM25.2514 49.8303C25.1726 49.9437 25.2007 50.0995 25.3141 50.1782C25.4275 50.257 25.5833 50.2289 25.6621 50.1155L25.2514 49.8303ZM84.381 69.4781L84.3368 69.7241C84.4092 69.7372 84.4837 69.7176 84.5404 69.6707C84.5971 69.6238 84.6302 69.5543 84.631 69.4807L84.381 69.4781ZM75.5685 49.9846L75.7724 49.8399L75.5685 49.9846ZM46.7925 43.3471L46.7609 43.0991C46.6308 43.1157 46.5357 43.23 46.5429 43.3609L46.7925 43.3471ZM57.0735 66.747L57.1972 66.5298L57.0735 66.747ZM78.7245 65.0129C78.7965 65.1307 78.9504 65.1678 79.0682 65.0958C79.186 65.0238 79.2232 64.8699 79.1512 64.7521L78.7245 65.0129ZM69.6564 64.9154C69.7196 65.0382 69.8703 65.0865 69.9931 65.0234C70.1159 64.9602 70.1642 64.8095 70.1011 64.6867L69.6564 64.9154ZM76.1131 55.9972C76.2416 56.0478 76.3867 55.9846 76.4373 55.8562C76.4879 55.7277 76.4247 55.5825 76.2962 55.532L76.1131 55.9972ZM58.7791 61.1798C58.842 61.3027 58.9926 61.3514 59.1155 61.2885C59.2385 61.2257 59.2871 61.075 59.2243 60.9521L58.7791 61.1798ZM68.1273 50.4703C68.2572 50.4233 68.3243 50.28 68.2773 50.1501C68.2303 50.0203 68.087 49.9532 67.9571 50.0002L68.1273 50.4703ZM28.5679 85.2917L28.3179 85.2962C28.3192 85.3698 28.3529 85.439 28.41 85.4855C28.467 85.532 28.5417 85.551 28.614 85.5374L28.5679 85.2917ZM45.9717 72.8512L45.7901 72.6795L45.9717 72.8512ZM46.8774 43.3335L47.1145 43.2542C47.0729 43.1299 46.9423 43.0588 46.8153 43.0914L46.8774 43.3335ZM25.928 57.9751L26.1652 58.0542L25.928 57.9751ZM31.8459 78.8738C31.7443 78.9674 31.7379 79.1256 31.8315 79.2271C31.925 79.3286 32.0832 79.3351 32.1847 79.2415L31.8459 78.8738ZM30.1753 69.9604C30.0672 70.0463 30.0491 70.2035 30.135 70.3117C30.2208 70.4198 30.3781 70.4379 30.4862 70.352L30.1753 69.9604ZM40.1802 74.5565C40.1557 74.6923 40.2459 74.8224 40.3817 74.847C40.5176 74.8715 40.6477 74.7813 40.6722 74.6455L40.1802 74.5565ZM31.7208 58.5638C31.6125 58.6494 31.5941 58.8066 31.6797 58.915C31.7653 59.0233 31.9225 59.0417 32.0308 58.9561L31.7208 58.5638ZM44.0459 65.6472C44.1173 65.7653 44.271 65.8033 44.3892 65.7319C44.5074 65.6605 44.5453 65.5068 44.4739 65.3886L44.0459 65.6472ZM31.4673 0.854047C29.412 3.71228 28.3937 7.20124 27.8905 10.8679C27.3873 14.5338 27.3967 18.3988 27.4115 22.015L27.9115 22.0129C27.8967 18.3911 27.8882 14.5612 28.3858 10.9358C28.8833 7.31106 29.8842 3.91206 31.8733 1.14595L31.4673 0.854047ZM27.4115 22.015C27.4237 24.9834 28.6913 27.8565 30.5585 30.4842C32.4265 33.1133 34.9076 35.5153 37.3787 37.5469C39.8509 39.5794 42.3203 41.2472 44.1711 42.4066C45.0967 42.9865 45.8681 43.4395 46.4086 43.7479C46.6789 43.9021 46.8914 44.0201 47.0367 44.0997C47.1093 44.1395 47.1651 44.1697 47.2029 44.19C47.2218 44.2002 47.2361 44.2078 47.2459 44.213C47.2507 44.2156 47.2544 44.2176 47.257 44.2189C47.2582 44.2196 47.2592 44.2201 47.2598 44.2205C47.2602 44.2206 47.2604 44.2208 47.2606 44.2209C47.2608 44.221 47.2609 44.221 47.3777 44C47.4946 43.779 47.4945 43.779 47.4944 43.7789C47.4943 43.7788 47.4941 43.7787 47.4939 43.7786C47.4933 43.7783 47.4925 43.7779 47.4914 43.7773C47.4891 43.7761 47.4857 43.7743 47.4811 43.7718C47.4719 43.7669 47.4581 43.7595 47.4398 43.7497C47.4031 43.7299 47.3485 43.7004 47.277 43.6612C47.1341 43.5829 46.924 43.4663 46.6564 43.3136C46.1211 43.0082 45.3556 42.5586 44.4365 41.9829C42.5979 40.831 40.1472 39.1757 37.6962 37.1607C35.2442 35.1447 32.7992 32.7746 30.966 30.1946C29.1319 27.6133 27.9231 24.8402 27.9115 22.0129L27.4115 22.015ZM47.3777 44C47.5898 44.1324 47.5899 44.1323 47.59 44.1321C47.5901 44.132 47.5902 44.1317 47.5904 44.1315C47.5907 44.1309 47.5912 44.1302 47.5918 44.1291C47.5931 44.1271 47.5949 44.1242 47.5973 44.1203C47.6021 44.1126 47.6091 44.1012 47.6183 44.0862C47.6367 44.0562 47.6637 44.0118 47.6987 43.9537C47.7687 43.8374 47.8705 43.666 47.9981 43.4448C48.2535 43.0023 48.6127 42.3601 49.0294 41.5596C49.8623 39.9589 50.9259 37.7227 51.847 35.1818C53.6824 30.1185 54.9807 23.7688 52.6594 18.8396L52.207 19.0527C54.4362 23.7861 53.2068 29.9634 51.3769 35.0114C50.4653 37.5261 49.4118 39.7416 48.5858 41.3287C48.173 42.1221 47.8173 42.7579 47.5651 43.1948C47.439 43.4133 47.3388 43.582 47.2703 43.6959C47.236 43.7528 47.2097 43.796 47.192 43.8249C47.1832 43.8393 47.1765 43.8501 47.1721 43.8573C47.1699 43.8609 47.1682 43.8635 47.1672 43.8652C47.1666 43.8661 47.1662 43.8667 47.166 43.8671C47.1658 43.8673 47.1658 43.8675 47.1657 43.8676C47.1657 43.8676 47.1657 43.8676 47.3777 44ZM52.6594 18.8396C51.7049 16.813 50.0732 14.8328 48.1384 12.9675C46.2018 11.1005 43.9498 9.3375 41.7417 7.7475C39.5336 6.15755 37.3634 4.7363 35.593 3.55655C33.81 2.3684 32.4576 1.44063 31.8481 0.824227L31.4925 1.17577C32.1469 1.83763 33.5537 2.79846 35.3157 3.97263C37.0904 5.15521 39.2508 6.57002 41.4495 8.15325C43.6481 9.73643 45.8789 11.4837 47.7914 13.3275C49.7057 15.173 51.2894 17.1041 52.207 19.0527L52.6594 18.8396ZM47.3777 44C47.6166 43.9261 47.6166 43.9261 47.6165 43.926C47.6165 43.926 47.6165 43.9258 47.6164 43.9257C47.6164 43.9254 47.6162 43.925 47.6161 43.9244C47.6157 43.9233 47.6152 43.9216 47.6145 43.9193C47.6131 43.9148 47.611 43.9081 47.6082 43.8992C47.6027 43.8813 47.5945 43.8548 47.5837 43.82C47.5622 43.7505 47.5305 43.648 47.4896 43.5161C47.4078 43.2522 47.2894 42.8705 47.143 42.3994C46.8503 41.4573 46.4456 40.1574 45.9977 38.7264C45.102 35.865 44.033 32.4776 43.3413 30.379L42.8665 30.5355C43.5568 32.6301 44.6247 36.0141 45.5205 38.8758C45.9683 40.3063 46.3729 41.6059 46.6656 42.5478C46.8119 43.0188 46.9302 43.4003 47.012 43.6641C47.0529 43.796 47.0846 43.8984 47.1061 43.9679C47.1169 44.0027 47.1251 44.0292 47.1306 44.047C47.1333 44.0559 47.1354 44.0626 47.1368 44.0671C47.1375 44.0694 47.138 44.071 47.1384 44.0722C47.1386 44.0727 47.1387 44.0732 47.1388 44.0735C47.1388 44.0736 47.1389 44.0737 47.1389 44.0738C47.1389 44.0738 47.1389 44.0739 47.3777 44ZM43.328 30.3465C42.3498 28.3678 41.9475 27.3896 41.3109 26.2166C40.6694 25.0345 39.7842 23.641 37.8211 20.7855L37.4091 21.0688C39.3715 23.9231 40.2435 25.298 40.8715 26.4551C41.5044 27.6213 41.8837 28.5532 42.8798 30.5681L43.328 30.3465ZM37.8211 20.7855C35.5691 17.5097 34.5457 14.2847 34.0853 11.8793C33.8552 10.6767 33.7659 9.67982 33.7341 8.98516C33.7182 8.63787 33.7166 8.36627 33.719 8.18245C33.7202 8.09055 33.7224 8.0206 33.7242 7.97413C33.7251 7.9509 33.7259 7.93354 33.7265 7.92223C33.7268 7.91658 33.7271 7.91244 33.7272 7.90984C33.7273 7.90854 33.7274 7.90763 33.7274 7.9071C33.7274 7.90684 33.7274 7.90667 33.7274 7.9066C33.7274 7.90656 33.7274 7.90659 33.7274 7.90657C33.7274 7.90661 33.7274 7.90668 33.4779 7.89058C33.2284 7.87449 33.2284 7.8746 33.2284 7.87475C33.2284 7.87483 33.2284 7.875 33.2284 7.87516C33.2284 7.87548 33.2284 7.8759 33.2283 7.87641C33.2283 7.87745 33.2282 7.87887 33.2281 7.88068C33.2279 7.8843 33.2276 7.88947 33.2272 7.89616C33.2265 7.90954 33.2256 7.92901 33.2246 7.95439C33.2226 8.00514 33.2203 8.07952 33.219 8.17599C33.2166 8.36894 33.2182 8.65034 33.2346 9.00804C33.2674 9.72333 33.359 10.7443 33.5943 11.9733C34.0647 14.4312 35.1099 17.7244 37.4091 21.0688L37.8211 20.7855ZM37.7549 21.1344C38.3982 20.7006 38.9197 19.9727 39.3407 19.1557C39.7641 18.3342 40.0985 17.398 40.356 16.5197C40.6139 15.6404 40.7966 14.8125 40.9149 14.2049C40.9741 13.9009 41.0172 13.6515 41.0456 13.4778C41.0598 13.3909 41.0703 13.3229 41.0773 13.2765C41.0808 13.2532 41.0834 13.2353 41.0852 13.2232C41.0861 13.2171 41.0868 13.2124 41.0872 13.2092C41.0874 13.2076 41.0876 13.2064 41.0877 13.2056C41.0878 13.2051 41.0878 13.2048 41.0879 13.2045C41.0879 13.2044 41.0879 13.2043 41.0879 13.2042C41.0879 13.2042 41.0879 13.2041 40.8403 13.1697C40.5927 13.1353 40.5927 13.1353 40.5927 13.1353C40.5927 13.1353 40.5927 13.1353 40.5927 13.1354C40.5927 13.1355 40.5926 13.1357 40.5926 13.1361C40.5925 13.1367 40.5923 13.1377 40.5922 13.1391C40.5918 13.1418 40.5912 13.146 40.5904 13.1516C40.5887 13.1629 40.5863 13.1798 40.5829 13.202C40.5762 13.2466 40.566 13.3125 40.5522 13.3972C40.5245 13.5666 40.4822 13.8109 40.4241 14.1094C40.3079 14.7067 40.1285 15.5187 39.8762 16.379C39.6236 17.2405 39.2998 18.1438 38.8963 18.9266C38.4906 19.7138 38.0166 20.3549 37.4753 20.7198L37.7549 21.1344ZM37.7089 20.6954C36.7204 20.2955 35.1954 19.6809 33.7921 18.9761C33.0904 18.6238 32.4244 18.2514 31.8739 17.875C31.3187 17.4954 30.9014 17.1253 30.6757 16.783L30.2583 17.0582C30.5382 17.4828 31.0203 17.8971 31.5917 18.2878C32.1678 18.6816 32.8555 19.0653 33.5677 19.423C34.992 20.1383 36.5356 20.7601 37.5214 21.1589L37.7089 20.6954ZM43.2612 30.6516C45.8363 28.568 47.3202 26.162 47.8349 22.5181L47.3398 22.4481C46.8434 25.9624 45.4269 28.2561 42.9467 30.2629L43.2612 30.6516ZM43.2437 30.25C40.9503 28.7037 38.6481 27.6166 36.9203 26.9163C36.0561 26.5659 35.3345 26.3119 34.8282 26.1453C34.5751 26.062 34.3757 26.0005 34.2392 25.9597C34.1709 25.9393 34.1183 25.924 34.0826 25.9139C34.0647 25.9088 34.0511 25.9049 34.0417 25.9023C34.0371 25.9011 34.0335 25.9001 34.0311 25.8994C34.0298 25.899 34.0289 25.8988 34.0282 25.8986C34.0279 25.8985 34.0276 25.8984 34.0274 25.8984C34.0273 25.8984 34.0272 25.8983 34.0272 25.8983C34.0271 25.8983 34.027 25.8983 33.9614 26.1395C33.8957 26.3807 33.8957 26.3807 33.8957 26.3807C33.8957 26.3807 33.8957 26.3807 33.8957 26.3807C33.8958 26.3808 33.896 26.3808 33.8962 26.3809C33.8966 26.381 33.8974 26.3812 33.8984 26.3815C33.9003 26.382 33.9034 26.3829 33.9076 26.384C33.916 26.3863 33.9286 26.3899 33.9455 26.3947C33.9793 26.4043 34.0298 26.419 34.096 26.4387C34.2284 26.4783 34.4234 26.5384 34.6719 26.6202C35.169 26.7838 35.8799 27.034 36.7325 27.3796C38.4385 28.0712 40.7076 29.143 42.9641 30.6645L43.2437 30.25ZM87.9324 21.7592C84.8316 20.0924 81.2399 19.5357 77.539 19.5127C73.8387 19.4898 70.0077 20.0008 66.424 20.485L66.491 20.9805C70.0802 20.4956 73.8766 19.99 77.5359 20.0127C81.1946 20.0354 84.6948 20.5865 87.6957 22.1996L87.9324 21.7592ZM66.424 20.485C63.4823 20.8825 60.7982 22.5124 58.435 24.7048C56.0707 26.8984 54.0112 29.6704 52.3176 32.3843C50.6232 35.0995 49.2902 37.7645 48.3809 39.7501C47.9261 40.7432 47.577 41.5669 47.3414 42.1429C47.2236 42.4309 47.1342 42.6569 47.0742 42.8113C47.0441 42.8885 47.0214 42.9477 47.0062 42.9878C46.9985 43.0078 46.9928 43.0231 46.9889 43.0334C46.987 43.0386 46.9855 43.0425 46.9845 43.0452C46.984 43.0465 46.9836 43.0475 46.9834 43.0482C46.9832 43.0486 46.9831 43.0489 46.9831 43.049C46.983 43.0493 46.9829 43.0494 47.2173 43.1365C47.4516 43.2236 47.4516 43.2236 47.4516 43.2235C47.4517 43.2234 47.4517 43.2232 47.4519 43.2229C47.4521 43.2223 47.4524 43.2215 47.4528 43.2203C47.4537 43.2179 47.4551 43.2142 47.4569 43.2094C47.4606 43.1996 47.4661 43.185 47.4735 43.1655C47.4883 43.1266 47.5105 43.0686 47.5401 42.9926C47.5992 42.8408 47.6876 42.6174 47.8042 42.3321C48.0375 41.7617 48.3839 40.9443 48.8355 39.9583C49.7388 37.9857 51.062 35.3408 52.7418 32.649C54.4223 29.956 56.4549 27.224 58.7751 25.0714C61.0964 22.9177 63.6891 21.3591 66.491 20.9805L66.424 20.485ZM47.2173 43.1365C47.1135 43.364 47.1137 43.364 47.1138 43.3641C47.114 43.3642 47.1142 43.3643 47.1145 43.3644C47.1151 43.3647 47.1159 43.3651 47.117 43.3656C47.1191 43.3665 47.1223 43.368 47.1264 43.3698C47.1347 43.3736 47.1469 43.379 47.163 43.3862C47.1951 43.4006 47.2426 43.4216 47.3049 43.4488C47.4293 43.5031 47.6124 43.5817 47.8483 43.6796C48.3202 43.8753 49.0036 44.1482 49.8515 44.4573C51.5467 45.0754 53.9021 45.8396 56.5411 46.4231C61.7998 47.5856 68.2643 48.0486 72.8504 45.1069L72.5804 44.6861C68.1764 47.5109 61.8918 47.0939 56.649 45.9348C54.0373 45.3574 51.7037 44.6005 50.0227 43.9876C49.1825 43.6812 48.506 43.4111 48.0399 43.2177C47.8069 43.1211 47.6266 43.0436 47.5048 42.9905C47.4439 42.9639 47.3977 42.9434 47.3668 42.9296C47.3513 42.9227 47.3397 42.9175 47.3321 42.9141C47.3282 42.9123 47.3254 42.911 47.3235 42.9102C47.3226 42.9098 47.3219 42.9095 47.3215 42.9093C47.3213 42.9092 47.3211 42.9091 47.321 42.9091C47.321 42.909 47.321 42.909 47.2173 43.1365ZM72.8504 45.1069C74.736 43.8975 76.4876 42.0224 78.0858 39.8619C79.6856 37.6992 81.1414 35.2374 82.4312 32.8416C83.721 30.4458 84.8485 28.1094 85.7884 26.2008C86.735 24.2787 87.4794 22.8172 88.0114 22.1329L87.6167 21.826C87.0454 22.5608 86.2754 24.0804 85.3399 25.9799C84.3977 27.8931 83.2753 30.2189 81.991 32.6046C80.7066 34.9901 79.2637 37.4288 77.6839 39.5645C76.1025 41.7022 74.3933 43.5232 72.5804 44.6861L72.8504 45.1069ZM47.2173 43.1365C47.3215 43.3637 47.3215 43.3637 47.3216 43.3637C47.3217 43.3637 47.3218 43.3636 47.3219 43.3635C47.3222 43.3634 47.3226 43.3632 47.3231 43.363C47.3242 43.3625 47.3258 43.3618 47.328 43.3608C47.3323 43.3588 47.3387 43.3558 47.3472 43.352C47.3641 43.3442 47.3894 43.3326 47.4224 43.3174C47.4886 43.287 47.5861 43.2423 47.7116 43.1846C47.9627 43.0692 48.3257 42.9023 48.7738 42.696C49.67 42.2834 50.9063 41.7134 52.267 41.0834C54.9879 39.8239 58.2079 38.3242 60.1989 37.3659L59.9821 36.9154C57.9949 37.8718 54.7782 39.37 52.057 40.6297C50.6967 41.2594 49.4607 41.8293 48.5647 42.2418C48.1167 42.4481 47.7538 42.6149 47.5028 42.7302C47.3774 42.7879 47.2799 42.8327 47.2138 42.863C47.1808 42.8782 47.1555 42.8898 47.1386 42.8975C47.1301 42.9014 47.1237 42.9044 47.1194 42.9063C47.1173 42.9073 47.1157 42.9081 47.1146 42.9085C47.1141 42.9088 47.1137 42.909 47.1134 42.9091C47.1133 42.9092 47.1132 42.9092 47.1131 42.9092C47.113 42.9093 47.113 42.9093 47.2173 43.1365ZM60.2295 37.3485C62.0644 36.1216 62.9821 35.5957 64.0625 34.8123C65.1514 34.0227 66.4181 32.9641 68.9946 30.6469L68.6602 30.2751C66.0848 32.5915 64.8348 33.6346 63.769 34.4075C62.6948 35.1865 61.82 35.6836 59.9516 36.9328L60.2295 37.3485ZM68.9946 30.6469C71.9502 27.9886 75.0151 26.5552 77.3404 25.7865C78.5029 25.4021 79.4798 25.1842 80.1644 25.0624C80.5067 25.0016 80.7758 24.9648 80.9584 24.9433C81.0497 24.9325 81.1193 24.9256 81.1656 24.9214C81.1888 24.9193 81.2061 24.9178 81.2174 24.917C81.223 24.9165 81.2272 24.9162 81.2298 24.916C81.2311 24.9159 81.232 24.9159 81.2325 24.9158C81.2328 24.9158 81.2329 24.9158 81.233 24.9158C81.233 24.9158 81.233 24.9158 81.233 24.9158C81.233 24.9158 81.2329 24.9158 81.2165 24.6663C81.2001 24.4169 81.1999 24.4169 81.1998 24.4169C81.1997 24.4169 81.1995 24.4169 81.1994 24.4169C81.1991 24.4169 81.1986 24.417 81.1981 24.417C81.1971 24.4171 81.1957 24.4172 81.1939 24.4173C81.1903 24.4176 81.1851 24.418 81.1784 24.4185C81.1651 24.4195 81.1456 24.4211 81.1203 24.4234C81.0697 24.428 80.9957 24.4354 80.8999 24.4467C80.7082 24.4693 80.4294 24.5075 80.0769 24.5702C79.3719 24.6955 78.3715 24.9189 77.1834 25.3117C74.8074 26.0973 71.6777 27.5612 68.6602 30.2751L68.9946 30.6469ZM68.64 30.6265C69.1537 31.2081 69.9431 31.6306 70.8079 31.942C71.6774 32.2552 72.6491 32.4652 73.5533 32.6065C74.4587 32.748 75.3033 32.8218 75.9211 32.8602C76.2302 32.8794 76.4831 32.8898 76.659 32.8954C76.747 32.8982 76.8158 32.8998 76.8628 32.9007C76.8863 32.9011 76.9044 32.9014 76.9167 32.9016C76.9228 32.9016 76.9275 32.9017 76.9307 32.9017C76.9324 32.9017 76.9336 32.9018 76.9345 32.9018C76.9349 32.9018 76.9352 32.9018 76.9355 32.9018C76.9356 32.9018 76.9357 32.9018 76.9358 32.9018C76.9359 32.9018 76.9359 32.9018 76.9379 32.6518C76.9399 32.4018 76.9399 32.4018 76.9399 32.4018C76.9399 32.4018 76.9398 32.4018 76.9398 32.4018C76.9396 32.4018 76.9394 32.4018 76.9391 32.4018C76.9384 32.4018 76.9374 32.4018 76.936 32.4018C76.9333 32.4017 76.929 32.4017 76.9234 32.4016C76.912 32.4014 76.8949 32.4012 76.8724 32.4008C76.8274 32.3999 76.7607 32.3983 76.6749 32.3956C76.5034 32.3902 76.2556 32.38 75.9521 32.3611C75.3448 32.3234 74.5164 32.251 73.6306 32.1125C72.7436 31.9739 71.8059 31.77 70.9773 31.4716C70.1441 31.1715 69.4469 30.7848 69.0148 30.2955L68.64 30.6265ZM69.0694 30.5239C69.3375 29.4918 69.7489 27.9 70.2655 26.417C70.5238 25.6756 70.8066 24.9669 71.1083 24.3722C71.4126 23.7724 71.7254 23.3105 72.0355 23.0423L71.7085 22.6641C71.3238 22.9968 70.9756 23.5287 70.6624 24.1459C70.3467 24.7683 70.0555 25.4999 69.7934 26.2525C69.269 27.7577 68.8529 29.3689 68.5854 30.3981L69.0694 30.5239ZM59.9182 37.3218C62.3185 39.6046 64.8968 40.7635 68.5767 40.8008L68.5818 40.3008C65.0328 40.2649 62.5747 39.1582 60.2628 36.9595L59.9182 37.3218ZM60.3142 37.2523C61.5497 34.7776 62.3286 32.3538 62.7987 30.5497C63.0339 29.6472 63.1921 28.8988 63.2916 28.3752C63.3413 28.1133 63.3764 27.9077 63.3992 27.767C63.4105 27.6966 63.4188 27.6425 63.4242 27.6058C63.427 27.5874 63.429 27.5734 63.4304 27.5638C63.431 27.559 63.4316 27.5554 63.4319 27.5528C63.4321 27.5516 63.4322 27.5506 63.4323 27.5499C63.4324 27.5495 63.4324 27.5493 63.4324 27.5491C63.4324 27.549 63.4325 27.5489 63.4325 27.5488C63.4325 27.5487 63.4325 27.5487 63.1848 27.5149C62.9371 27.4811 62.9371 27.4811 62.9371 27.4811C62.9371 27.4811 62.9371 27.4811 62.9371 27.4811C62.9371 27.4812 62.937 27.4814 62.937 27.4816C62.9369 27.4821 62.9368 27.4828 62.9367 27.4838C62.9364 27.4859 62.936 27.489 62.9354 27.4933C62.9341 27.5019 62.9322 27.515 62.9297 27.5323C62.9245 27.5671 62.9166 27.6191 62.9056 27.6873C62.8835 27.8237 62.8492 28.0248 62.8004 28.2818C62.7027 28.7959 62.5469 29.5333 62.3149 30.4236C61.8507 32.2049 61.0825 34.594 59.8668 37.029L60.3142 37.2523ZM0.794537 43.8613C2.80016 46.7546 5.74717 48.8818 9.03397 50.583C12.3202 52.284 15.9655 53.5686 19.3781 54.7648L19.5435 54.2929C16.1255 53.0949 12.5137 51.8211 9.26381 50.139C6.01451 48.4572 3.14644 46.3765 1.20546 43.5764L0.794537 43.8613ZM19.3781 54.7648C22.1795 55.7467 25.3111 55.5136 28.4121 54.6335C31.5148 53.753 34.6086 52.2188 37.35 50.5701C40.0927 48.9206 42.4907 47.1517 44.2026 45.7956C45.0587 45.1174 45.7439 44.5421 46.2153 44.1359C46.451 43.9328 46.6334 43.772 46.757 43.6618C46.8188 43.6067 46.8659 43.5642 46.8977 43.5354C46.9136 43.521 46.9257 43.5101 46.9338 43.5026C46.9379 43.4989 46.941 43.4961 46.9431 43.4942C46.9441 43.4932 46.9449 43.4925 46.9455 43.492C46.9458 43.4917 46.946 43.4915 46.9461 43.4914C46.9463 43.4912 46.9464 43.4911 46.7772 43.3071C46.608 43.123 46.608 43.123 46.6079 43.1231C46.6078 43.1232 46.6077 43.1234 46.6074 43.1236C46.607 43.124 46.6063 43.1246 46.6054 43.1255C46.6035 43.1272 46.6006 43.1298 46.5968 43.1333C46.5891 43.1403 46.5775 43.1509 46.5621 43.1649C46.5312 43.1928 46.4851 43.2344 46.4242 43.2886C46.3026 43.3971 46.1224 43.556 45.889 43.7571C45.422 44.1594 44.7422 44.7303 43.8921 45.4037C42.1914 46.7509 39.8114 48.5063 37.0923 50.1416C34.372 51.7776 31.3203 53.2884 28.2756 54.1525C25.2294 55.0171 22.2116 55.2281 19.5435 54.2929L19.3781 54.7648ZM46.7772 43.3071C46.9729 43.1515 46.9728 43.1514 46.9727 43.1513C46.9726 43.1511 46.9725 43.1509 46.9723 43.1507C46.9719 43.1502 46.9713 43.1495 46.9706 43.1485C46.9691 43.1467 46.9669 43.144 46.9641 43.1405C46.9584 43.1334 46.95 43.1229 46.939 43.1093C46.9169 43.0819 46.8841 43.0415 46.841 42.9891C46.7548 42.8842 46.6274 42.731 46.4616 42.5366C46.1301 42.1479 45.6452 41.5945 45.0302 40.934C43.8006 39.6134 42.0492 37.8628 39.963 36.1445C35.8059 32.7204 30.2568 29.3721 24.835 29.91L24.8844 30.4076C30.091 29.891 35.5006 33.1167 39.6452 36.5304C41.7098 38.231 43.445 39.9652 44.6643 41.2747C45.2737 41.9293 45.7538 42.4772 46.0812 42.8611C46.2448 43.053 46.3703 43.2039 46.4547 43.3066C46.4969 43.3579 46.5288 43.3972 46.55 43.4235C46.5607 43.4366 46.5686 43.4465 46.5739 43.4531C46.5765 43.4564 46.5785 43.4588 46.5798 43.4604C46.5804 43.4612 46.5809 43.4618 46.5811 43.4622C46.5813 43.4624 46.5814 43.4625 46.5815 43.4626C46.5815 43.4626 46.5815 43.4626 46.7772 43.3071ZM24.835 29.91C22.6058 30.1312 20.1938 31.0062 17.7886 32.2052C15.3811 33.4054 12.9661 34.9375 10.7288 36.4862C8.49165 38.0349 6.42607 39.6044 4.72188 40.8779C3.00556 42.1605 1.67867 43.1245 0.893855 43.4925L1.10615 43.9452C1.94884 43.55 3.32505 42.5459 5.02118 41.2784C6.72946 40.0019 8.78569 38.4395 11.0134 36.8974C13.2411 35.3553 15.6342 33.8379 18.0116 32.6527C20.3914 31.4664 22.7411 30.6202 24.8844 30.4076L24.835 29.91ZM46.7772 43.3071C46.7875 43.0573 46.7875 43.0573 46.7874 43.0573C46.7873 43.0573 46.7872 43.0573 46.7871 43.0573C46.7868 43.0573 46.7863 43.0572 46.7857 43.0572C46.7846 43.0572 46.7828 43.0571 46.7804 43.057C46.7757 43.0568 46.7686 43.0565 46.7593 43.0561C46.7407 43.0554 46.7129 43.0542 46.6766 43.0527C46.6039 43.0497 46.4966 43.0454 46.3586 43.0397C46.0826 43.0285 45.6833 43.0123 45.1904 42.9926C44.2046 42.9532 42.8442 42.8996 41.3458 42.8428C38.3497 42.7292 34.7999 42.603 32.5908 42.5525L32.5794 43.0523C34.7842 43.1028 38.3304 43.2289 41.3269 43.3424C42.8248 43.3992 44.1849 43.4528 45.1704 43.4922C45.6632 43.5119 46.0623 43.5281 46.3383 43.5393C46.4762 43.5449 46.5834 43.5493 46.6561 43.5523C46.6924 43.5538 46.7201 43.5549 46.7388 43.5557C46.7481 43.5561 46.7551 43.5564 46.7598 43.5566C46.7622 43.5567 46.7639 43.5567 46.7651 43.5568C46.7657 43.5568 46.7662 43.5568 46.7665 43.5568C46.7666 43.5568 46.7667 43.5569 46.7668 43.5569C46.7669 43.5569 46.7669 43.5569 46.7772 43.3071ZM32.5557 42.5541C30.3637 42.8138 29.3073 42.8655 27.9889 43.0728C26.6602 43.2818 25.0509 43.6496 21.7031 44.5439L21.8321 45.027C25.1786 44.133 26.766 43.7713 28.0666 43.5668C29.3774 43.3606 30.3825 43.315 32.6145 43.0507L32.5557 42.5541ZM21.7031 44.5439C17.8626 45.5699 14.481 45.455 12.0602 45.0838C10.85 44.8983 9.88065 44.6488 9.21539 44.4463C8.8828 44.3451 8.62634 44.2557 8.45392 44.1919C8.36771 44.16 8.30253 44.1346 8.25935 44.1173C8.23777 44.1087 8.22168 44.1021 8.21123 44.0977C8.206 44.0956 8.20218 44.0939 8.19978 44.0929C8.19858 44.0924 8.19774 44.0921 8.19725 44.0919C8.19701 44.0918 8.19685 44.0917 8.19679 44.0917C8.19676 44.0917 8.19678 44.0917 8.19676 44.0917C8.1968 44.0917 8.19687 44.0917 8.09821 44.3214C7.99955 44.5511 7.99966 44.5512 7.99979 44.5512C7.99986 44.5513 8.00002 44.5513 8.00016 44.5514C8.00046 44.5515 8.00085 44.5517 8.00132 44.5519C8.00228 44.5523 8.00359 44.5528 8.00526 44.5535C8.0086 44.555 8.01337 44.557 8.01956 44.5595C8.03193 44.5647 8.04997 44.5721 8.07355 44.5815C8.1207 44.6004 8.19003 44.6274 8.28053 44.6609C8.46151 44.7278 8.72725 44.8204 9.0698 44.9247C9.75482 45.1332 10.7476 45.3884 11.9845 45.5781C14.4581 45.9573 17.9112 46.0744 21.8321 45.027L21.7031 44.5439ZM22.0097 44.7231C21.8162 43.9717 21.3047 43.2367 20.6758 42.5665C20.0434 41.8926 19.273 41.2642 18.5316 40.7276C17.7892 40.1904 17.0703 39.7411 16.5373 39.4263C16.2706 39.2688 16.05 39.1447 15.8958 39.0598C15.8187 39.0174 15.7582 38.9847 15.7167 38.9626C15.696 38.9515 15.68 38.943 15.6691 38.9373C15.6637 38.9344 15.6595 38.9323 15.6566 38.9308C15.6552 38.93 15.6541 38.9294 15.6534 38.929C15.653 38.9288 15.6527 38.9287 15.6524 38.9286C15.6523 38.9285 15.6522 38.9285 15.6522 38.9284C15.6521 38.9284 15.652 38.9284 15.5368 39.1502C15.4215 39.372 15.4214 39.372 15.4214 39.372C15.4215 39.372 15.4215 39.372 15.4216 39.3721C15.4217 39.3721 15.4219 39.3722 15.4222 39.3724C15.4227 39.3727 15.4236 39.3731 15.4249 39.3738C15.4273 39.3751 15.4311 39.377 15.4361 39.3797C15.4461 39.385 15.4613 39.393 15.4811 39.4036C15.5208 39.4248 15.5795 39.4565 15.6547 39.4978C15.8051 39.5806 16.0212 39.7022 16.283 39.8568C16.807 40.1663 17.5121 40.607 18.2384 41.1327C18.9656 41.659 19.7085 42.2665 20.3112 42.9087C20.9172 43.5545 21.3627 44.2157 21.5255 44.8478L22.0097 44.7231ZM21.5806 44.6195C20.873 45.4172 19.7835 46.6486 18.6497 47.7352C18.0828 48.2785 17.5091 48.7814 16.9702 49.1742C16.4267 49.5704 15.9382 49.8398 15.5401 49.9379L15.6597 50.4234C16.1535 50.3017 16.7053 49.986 17.2647 49.5783C17.8286 49.1672 18.4203 48.6476 18.9957 48.0962C20.1464 46.9933 21.2489 45.7469 21.9546 44.9514L21.5806 44.6195ZM32.8209 42.7193C31.7192 39.5953 29.9485 37.3918 26.6869 35.6874L26.4553 36.1305C29.6008 37.7743 31.2882 39.8767 32.3493 42.8855L32.8209 42.7193ZM32.4365 42.6013C30.2119 44.245 28.4171 46.0506 27.1789 47.4444C26.5595 48.1417 26.0787 48.7366 25.7522 49.1579C25.589 49.3686 25.4643 49.5359 25.3802 49.6509C25.3381 49.7084 25.3062 49.7529 25.2846 49.7831C25.2739 49.7983 25.2657 49.8099 25.2601 49.8178C25.2574 49.8217 25.2552 49.8247 25.2538 49.8268C25.253 49.8279 25.2525 49.8287 25.2521 49.8293C25.2519 49.8295 25.2517 49.8298 25.2516 49.8299C25.2515 49.83 25.2515 49.8301 25.2515 49.8302C25.2514 49.8302 25.2514 49.8303 25.4567 49.9729C25.6621 50.1155 25.662 50.1155 25.662 50.1155C25.6621 50.1155 25.6621 50.1155 25.6621 50.1154C25.6621 50.1154 25.6622 50.1152 25.6624 50.115C25.6626 50.1147 25.663 50.1141 25.6636 50.1132C25.6648 50.1115 25.6666 50.1089 25.6691 50.1053C25.6741 50.0983 25.6817 50.0875 25.6919 50.0732C25.7123 50.0446 25.743 50.0019 25.7838 49.9461C25.8653 49.8346 25.9872 49.671 26.1475 49.4642C26.468 49.0505 26.9417 48.4643 27.5527 47.7765C28.7753 46.4003 30.5447 44.6207 32.7336 43.0035L32.4365 42.6013ZM84.631 69.4807C84.6674 65.9604 83.4928 62.5209 81.7946 59.2325C80.0968 55.9446 77.8653 52.789 75.7724 49.8399L75.3647 50.1293C77.4608 53.0829 79.6713 56.2105 81.3504 59.4619C83.0291 62.7128 84.1663 66.0687 84.131 69.4755L84.631 69.4807ZM75.7724 49.8399C74.0544 47.4191 71.3646 45.7986 68.3255 44.7238C65.2849 43.6484 61.8736 43.1114 58.6836 42.8717C55.4921 42.6318 52.5128 42.6886 50.332 42.8052C49.2414 42.8636 48.3497 42.9369 47.7302 42.9957C47.4205 43.0251 47.1787 43.0509 47.0141 43.0694C46.9318 43.0786 46.8688 43.086 46.8262 43.0911C46.8049 43.0937 46.7887 43.0957 46.7778 43.097C46.7723 43.0977 46.7682 43.0982 46.7653 43.0986C46.7639 43.0987 46.7629 43.0989 46.7621 43.099C46.7617 43.099 46.7614 43.0991 46.7612 43.0991C46.761 43.0991 46.7609 43.0991 46.7925 43.3471C46.8242 43.5951 46.8242 43.5951 46.8243 43.5951C46.8244 43.5951 46.8246 43.595 46.8249 43.595C46.8255 43.5949 46.8265 43.5948 46.8277 43.5947C46.8303 43.5943 46.8341 43.5939 46.8393 43.5932C46.8496 43.5919 46.8652 43.59 46.8858 43.5875C46.9272 43.5826 46.9889 43.5753 47.0699 43.5662C47.2318 43.5481 47.4707 43.5226 47.7775 43.4935C48.391 43.4352 49.2758 43.3625 50.3587 43.3045C52.5253 43.1886 55.4821 43.1324 58.6461 43.3702C61.8115 43.6082 65.175 44.1398 68.1588 45.1952C71.1441 46.251 73.7284 47.8236 75.3647 50.1293L75.7724 49.8399ZM46.7925 43.3471C46.5429 43.3609 46.5429 43.361 46.5429 43.3612C46.5429 43.3614 46.5429 43.3616 46.543 43.362C46.543 43.3626 46.543 43.3635 46.5431 43.3647C46.5432 43.367 46.5434 43.3705 46.5437 43.375C46.5442 43.3841 46.5451 43.3974 46.5462 43.415C46.5484 43.4501 46.5518 43.502 46.5566 43.5697C46.5663 43.7051 46.5817 43.9038 46.6046 44.1582C46.6503 44.667 46.726 45.399 46.8459 46.2934C47.0856 48.0818 47.5025 50.5227 48.2111 53.1309C49.6233 58.3282 52.215 64.2685 56.9498 66.9643L57.1972 66.5298C52.6504 63.941 50.1016 58.1814 48.6937 52.9998C47.9923 50.4186 47.5792 48.0004 47.3415 46.227C47.2227 45.3406 47.1478 44.616 47.1026 44.1135C47.08 43.8622 47.0649 43.6666 47.0554 43.534C47.0506 43.4677 47.0473 43.4173 47.0452 43.3835C47.0441 43.3666 47.0433 43.3539 47.0428 43.3455C47.0426 43.3413 47.0424 43.3382 47.0423 43.3362C47.0422 43.3351 47.0422 43.3344 47.0422 43.3339C47.0422 43.3337 47.0421 43.3336 47.0421 43.3334C47.0421 43.3334 47.0421 43.3333 46.7925 43.3471ZM56.9498 66.9643C58.8965 68.0727 61.3704 68.7533 64.0261 69.1656C66.6843 69.5783 69.5406 69.7245 72.2614 69.7544C74.9822 69.7843 77.5749 69.698 79.7017 69.6442C81.8436 69.5901 83.4836 69.5707 84.3368 69.7241L84.4253 69.232C83.5092 69.0673 81.8058 69.0909 79.6891 69.1444C77.5572 69.1983 74.9762 69.2842 72.2669 69.2544C69.5578 69.2246 66.7279 69.0791 64.1028 68.6716C61.4753 68.2636 59.0688 67.5954 57.1972 66.5298L56.9498 66.9643ZM46.7925 43.3471C46.6397 43.545 46.6397 43.545 46.6398 43.545C46.6398 43.5451 46.6399 43.5451 46.64 43.5452C46.6403 43.5454 46.6406 43.5457 46.6411 43.5461C46.642 43.5468 46.6435 43.5479 46.6453 43.5493C46.6491 43.5522 46.6546 43.5565 46.662 43.5622C46.6768 43.5736 46.6988 43.5906 46.7276 43.6128C46.7852 43.6573 46.8701 43.7229 46.9795 43.8073C47.1982 43.976 47.5147 44.2201 47.9054 44.5211C48.687 45.1233 49.7659 45.9536 50.9556 46.8662C53.3346 48.6911 56.1579 50.8465 57.9312 52.165L58.2295 51.7637C56.4597 50.4478 53.6392 48.2946 51.26 46.4695C50.0706 45.5571 48.9919 44.727 48.2106 44.1251C47.8199 43.8241 47.5036 43.5801 47.2849 43.4114C47.1756 43.3271 47.0907 43.2615 47.0331 43.2171C47.0044 43.1948 46.9824 43.1779 46.9676 43.1665C46.9603 43.1608 46.9547 43.1565 46.951 43.1536C46.9491 43.1522 46.9477 43.1511 46.9468 43.1504C46.9463 43.15 46.9459 43.1497 46.9457 43.1495C46.9456 43.1495 46.9455 43.1494 46.9454 43.1493C46.9454 43.1493 46.9453 43.1493 46.7925 43.3471ZM57.9608 52.1839C59.8994 53.2394 60.7913 53.808 61.9868 54.4011C63.1917 54.9988 64.7175 55.6291 67.966 56.835L68.14 56.3663C64.8927 55.1609 63.3884 54.5382 62.209 53.9531C61.0203 53.3635 60.1739 52.8195 58.1999 51.7448L57.9608 52.1839ZM67.966 56.835C71.6928 58.2184 74.3854 60.2673 76.146 61.9697C77.0262 62.8208 77.6728 63.5848 78.0985 64.1347C78.3114 64.4095 78.4689 64.6308 78.5727 64.7825C78.6246 64.8584 78.6631 64.9168 78.6884 64.9559C78.701 64.9754 78.7103 64.9901 78.7163 64.9997C78.7193 65.0045 78.7215 65.008 78.7229 65.0102C78.7236 65.0113 78.724 65.0121 78.7243 65.0125C78.7245 65.0128 78.7245 65.0129 78.7246 65.013C78.7246 65.013 78.7246 65.013 78.7246 65.013C78.7246 65.0129 78.7245 65.0129 78.9378 64.8825C79.1512 64.7521 79.1511 64.752 79.151 64.7519C79.151 64.7518 79.1509 64.7517 79.1508 64.7515C79.1506 64.7513 79.1504 64.7509 79.1501 64.7505C79.1496 64.7496 79.1489 64.7484 79.1479 64.7468C79.146 64.7438 79.1433 64.7394 79.1397 64.7337C79.1326 64.7223 79.1221 64.7059 79.1083 64.6845C79.0808 64.6419 79.0398 64.5797 78.9854 64.5001C78.8764 64.3409 78.7131 64.1117 78.4939 63.8286C78.0555 63.2624 77.3931 62.4801 76.4935 61.6102C74.6946 59.8707 71.9448 57.7786 68.14 56.3663L67.966 56.835ZM67.8195 56.5115C67.5429 57.2365 67.5353 58.1319 67.661 59.0424C67.7874 59.9579 68.0526 60.916 68.3473 61.7825C68.6423 62.6501 68.9692 63.4323 69.2221 63.9973C69.3486 64.28 69.4568 64.5088 69.5336 64.6672C69.5719 64.7464 69.6024 64.8081 69.6235 64.8501C69.634 64.8711 69.6421 64.8873 69.6477 64.8982C69.6505 64.9037 69.6526 64.9079 69.6541 64.9108C69.6548 64.9122 69.6554 64.9133 69.6558 64.9141C69.656 64.9145 69.6561 64.9148 69.6562 64.915C69.6563 64.9151 69.6563 64.9152 69.6564 64.9153C69.6564 64.9153 69.6564 64.9154 69.8788 64.8011C70.1011 64.6867 70.1011 64.6867 70.1011 64.6867C70.1011 64.6867 70.1011 64.6867 70.101 64.6866C70.101 64.6865 70.1009 64.6863 70.1007 64.686C70.1004 64.6854 70.1 64.6845 70.0993 64.6833C70.0981 64.6808 70.0962 64.6771 70.0936 64.672C70.0885 64.6619 70.0807 64.6466 70.0707 64.6265C70.0505 64.5862 70.0209 64.5264 69.9835 64.4492C69.9087 64.2947 69.8027 64.0706 69.6785 63.793C69.4299 63.2376 69.1093 62.4703 68.8206 61.6215C68.5316 60.7716 68.2767 59.8465 68.1563 58.974C68.0351 58.0967 68.054 57.2996 68.2866 56.6898L67.8195 56.5115ZM68.1097 56.8441C69.1483 56.6025 70.7491 56.2276 72.3024 55.9966C73.0791 55.8811 73.838 55.8024 74.5048 55.7935C75.1773 55.7845 75.7316 55.8471 76.1131 55.9972L76.2962 55.532C75.823 55.3457 75.1902 55.2843 74.4981 55.2935C73.8004 55.3029 73.0172 55.3848 72.2289 55.502C70.6523 55.7365 69.0321 56.1161 67.9964 56.3572L68.1097 56.8441ZM57.8399 51.8959C56.9326 55.0817 57.1034 57.9033 58.7791 61.1798L59.2243 60.9521C57.6082 57.7922 57.4469 55.1013 58.3208 52.0328L57.8399 51.8959ZM58.0853 52.2143C60.8507 52.1594 63.3591 51.7238 65.1752 51.3025C66.0837 51.0917 66.82 50.8843 67.3299 50.7293C67.5849 50.6518 67.7834 50.5874 67.9185 50.5422C67.9861 50.5196 68.0378 50.5018 68.0729 50.4895C68.0905 50.4834 68.1038 50.4787 68.113 50.4754C68.1175 50.4738 68.121 50.4726 68.1234 50.4717C68.1246 50.4713 68.1255 50.471 68.1262 50.4707C68.1265 50.4706 68.1268 50.4705 68.127 50.4704C68.1271 50.4704 68.1272 50.4704 68.1272 50.4704C68.1273 50.4703 68.1273 50.4703 68.0422 50.2352C67.9571 50.0002 67.9572 50.0002 67.9572 50.0002C67.9571 50.0002 67.9571 50.0002 67.9571 50.0002C67.957 50.0002 67.9569 50.0003 67.9567 50.0003C67.9562 50.0005 67.9555 50.0007 67.9546 50.0011C67.9526 50.0018 67.9496 50.0029 67.9455 50.0043C67.9373 50.0072 67.9249 50.0116 67.9083 50.0174C67.8752 50.0289 67.8254 50.0461 67.7599 50.068C67.6289 50.1118 67.4348 50.1748 67.1845 50.2509C66.6838 50.4031 65.9584 50.6075 65.0622 50.8154C63.269 51.2315 60.7964 51.6604 58.0754 51.7144L58.0853 52.2143ZM28.614 85.5374C32.074 84.8874 35.2188 83.0654 38.1135 80.7593C41.0077 78.4536 43.6683 75.6502 46.1533 73.023L45.7901 72.6795C43.3012 75.3107 40.6641 78.0881 37.8019 80.3682C34.9403 82.648 31.8701 84.417 28.5217 85.046L28.614 85.5374ZM46.1533 73.023C48.1932 70.8665 49.2587 67.9125 49.721 64.7223C50.1836 61.5304 50.0459 58.0799 49.6597 54.9043C49.2735 51.7272 48.6374 48.816 48.0983 46.6997C47.8286 45.6413 47.583 44.781 47.4047 44.1848C47.3155 43.8867 47.2432 43.6546 47.193 43.4968C47.1679 43.4179 47.1484 43.3575 47.1351 43.3167C47.1284 43.2964 47.1233 43.2809 47.1198 43.2704C47.1181 43.2652 47.1168 43.2612 47.1159 43.2585C47.1154 43.2571 47.1151 43.2561 47.1149 43.2554C47.1147 43.255 47.1146 43.2547 47.1146 43.2546C47.1145 43.2543 47.1145 43.2542 46.8774 43.3335C46.6403 43.4129 46.6403 43.4129 46.6404 43.413C46.6404 43.4132 46.6405 43.4133 46.6406 43.4136C46.6408 43.4142 46.641 43.4151 46.6414 43.4163C46.6423 43.4187 46.6435 43.4224 46.6451 43.4273C46.6484 43.4372 46.6533 43.4521 46.6597 43.4719C46.6727 43.5115 46.6918 43.5706 46.7165 43.6482C46.7658 43.8035 46.8374 44.0329 46.9257 44.3281C47.1023 44.9186 47.346 45.7722 47.6137 46.8232C48.1494 48.9257 48.7804 51.8149 49.1634 54.9646C49.5465 58.1158 49.6802 61.5184 49.2262 64.6506C48.772 67.7844 47.7329 70.6254 45.7901 72.6795L46.1533 73.023ZM46.8774 43.3335C46.8153 43.0914 46.8151 43.0914 46.8149 43.0915C46.8148 43.0915 46.8145 43.0916 46.8142 43.0917C46.8136 43.0918 46.8127 43.092 46.8116 43.0923C46.8093 43.0929 46.806 43.0938 46.8016 43.0949C46.7928 43.0972 46.7798 43.1006 46.7628 43.1051C46.7288 43.1141 46.6786 43.1276 46.6131 43.1455C46.4822 43.1814 46.2903 43.2352 46.0452 43.3072C45.555 43.4512 44.8519 43.6679 43.9979 43.9598C42.2904 44.5432 39.9775 45.4275 37.5573 46.6306C32.7346 49.028 27.4128 52.727 25.6908 57.8961L26.1652 58.0542C27.8188 53.0902 32.9717 49.4684 37.7798 47.0783C40.175 45.8876 42.4665 45.0114 44.1596 44.4329C45.0059 44.1437 45.702 43.9291 46.1861 43.7869C46.4281 43.7158 46.6171 43.6629 46.7453 43.6278C46.8093 43.6102 46.8582 43.5971 46.8909 43.5884C46.9073 43.5841 46.9196 43.5809 46.9277 43.5788C46.9318 43.5777 46.9348 43.5769 46.9368 43.5764C46.9378 43.5762 46.9385 43.576 46.9389 43.5758C46.9392 43.5758 46.9393 43.5758 46.9394 43.5757C46.9395 43.5757 46.9395 43.5757 46.8774 43.3335ZM25.6908 57.8961C24.9828 60.0215 24.797 62.5806 24.9098 65.2657C25.0228 67.9534 25.4357 70.7834 25.9363 73.458C26.4369 76.1324 27.0266 78.6588 27.4935 80.7343C27.9638 82.8247 28.3023 84.4295 28.3179 85.2962L28.8178 85.2872C28.801 84.3566 28.4461 82.6903 27.9813 80.6246C27.5133 78.544 26.9263 76.0292 26.4278 73.366C25.9294 70.7029 25.5209 67.8989 25.4094 65.2447C25.2978 62.588 25.4845 60.0976 26.1652 58.0542L25.6908 57.8961ZM46.8774 43.3335C46.6536 43.2222 46.6535 43.2222 46.6535 43.2223C46.6535 43.2223 46.6534 43.2224 46.6534 43.2226C46.6532 43.2228 46.653 43.2232 46.6528 43.2238C46.6522 43.2248 46.6514 43.2264 46.6504 43.2286C46.6483 43.2328 46.6451 43.2391 46.641 43.2475C46.6327 43.2642 46.6203 43.289 46.6041 43.3216C46.5717 43.3868 46.5239 43.4829 46.4625 43.6066C46.3395 43.854 46.1618 44.2119 45.9426 44.6538C45.5042 45.5376 44.9 46.7577 44.2365 48.1023C42.9099 50.7912 41.3457 53.9803 40.3979 55.9763L40.8495 56.1908C41.7955 54.1986 43.3582 51.0127 44.6849 48.3236C45.3482 46.9793 45.9523 45.7596 46.3905 44.876C46.6097 44.4342 46.7873 44.0764 46.9102 43.8291C46.9717 43.7054 47.0194 43.6094 47.0518 43.5442C47.068 43.5117 47.0804 43.4868 47.0887 43.4701C47.0928 43.4618 47.0959 43.4555 47.098 43.4513C47.0991 43.4492 47.0999 43.4476 47.1004 43.4465C47.1007 43.446 47.1009 43.4456 47.101 43.4453C47.1011 43.4452 47.1011 43.4451 47.1012 43.445C47.1012 43.445 47.1012 43.4449 46.8774 43.3335ZM40.385 56.0091C39.7273 58.1161 39.3434 59.1016 38.9945 60.3898C38.6429 61.688 38.3218 63.3074 37.7717 66.7286L38.2654 66.808C38.8152 63.388 39.133 61.7913 39.4771 60.5205C39.824 59.2398 40.1926 58.3035 40.8623 56.158L40.385 56.0091ZM37.7717 66.7286C37.1407 70.6534 35.6555 73.6935 34.3286 75.7519C33.6651 76.7811 33.0417 77.5641 32.5853 78.0888C32.3572 78.3511 32.1708 78.5487 32.0423 78.6801C31.978 78.7458 31.9281 78.7949 31.8947 78.8272C31.878 78.8434 31.8654 78.8554 31.8572 78.8632C31.8531 78.8671 31.8501 78.8699 31.8482 78.8717C31.8472 78.8726 31.8465 78.8732 31.8462 78.8736C31.846 78.8737 31.8458 78.8739 31.8458 78.8739C31.8458 78.8739 31.8458 78.8739 31.8458 78.8739C31.8458 78.8739 31.8459 78.8738 32.0153 79.0577C32.1847 79.2415 32.1848 79.2414 32.1849 79.2413C32.185 79.2413 32.1851 79.2412 32.1852 79.241C32.1854 79.2408 32.1858 79.2405 32.1861 79.2402C32.1869 79.2395 32.1879 79.2385 32.1893 79.2373C32.1919 79.2348 32.1957 79.2313 32.2006 79.2267C32.2103 79.2175 32.2244 79.204 32.2427 79.1863C32.2791 79.151 32.3321 79.0988 32.3996 79.0298C32.5346 78.8919 32.7276 78.6871 32.9626 78.4169C33.4325 77.8767 34.0708 77.0746 34.7488 76.0228C36.1047 73.9195 37.6211 70.8149 38.2654 66.808L37.7717 66.7286ZM38.0604 66.5218C37.2955 66.3917 36.4157 66.5587 35.5472 66.8593C34.6739 67.1616 33.7858 67.6083 32.9932 68.0661C32.1997 68.5245 31.4962 68.9975 30.9912 69.3556C30.7386 69.5347 30.5353 69.6854 30.3948 69.7915C30.3246 69.8446 30.2701 69.8865 30.2329 69.9154C30.2143 69.9298 30.2001 69.9409 30.1904 69.9485C30.1856 69.9523 30.1819 69.9552 30.1794 69.9572C30.1781 69.9582 30.1771 69.959 30.1765 69.9595C30.1761 69.9598 30.1759 69.96 30.1757 69.9601C30.1756 69.9602 30.1755 69.9603 30.1754 69.9603C30.1754 69.9604 30.1753 69.9604 30.3308 70.1562C30.4862 70.352 30.4862 70.352 30.4862 70.352C30.4862 70.352 30.4862 70.352 30.4863 70.3519C30.4864 70.3519 30.4866 70.3517 30.4868 70.3515C30.4873 70.3511 30.4881 70.3505 30.4892 70.3496C30.4914 70.3479 30.4947 70.3453 30.4992 70.3418C30.5081 70.3348 30.5216 70.3242 30.5394 70.3104C30.5749 70.2828 30.6278 70.2422 30.6963 70.1904C30.8332 70.087 31.0324 69.9393 31.2805 69.7634C31.7768 69.4114 32.467 68.9476 33.2434 68.4991C34.0207 68.05 34.8784 67.6199 35.7107 67.3318C36.5477 67.0421 37.3331 66.9053 37.9766 67.0147L38.0604 66.5218ZM37.7907 66.8713C38.2301 67.8429 38.9095 69.3401 39.4387 70.8186C39.7032 71.5579 39.9282 72.287 40.0668 72.9393C40.2066 73.5971 40.2532 74.153 40.1802 74.5565L40.6722 74.6455C40.7627 74.145 40.6998 73.5124 40.5559 72.8353C40.4108 72.1528 40.178 71.4005 39.9094 70.6502C39.3724 69.1495 38.6845 67.6342 38.2463 66.6653L37.7907 66.8713ZM40.644 55.8344C37.3425 55.565 34.6082 56.282 31.7208 58.5638L32.0308 58.9561C34.8155 56.7555 37.4234 56.0732 40.6034 56.3327L40.644 55.8344ZM40.3795 56.1371C40.9719 58.8389 41.8877 61.2144 42.6547 62.9136C43.0384 63.7637 43.3852 64.4455 43.6366 64.9155C43.7623 65.1505 43.8641 65.3326 43.9348 65.4563C43.9701 65.5182 43.9977 65.5655 44.0165 65.5975C44.0259 65.6136 44.0331 65.6258 44.0381 65.6341C44.0406 65.6382 44.0425 65.6414 44.0438 65.6436C44.0444 65.6447 44.0449 65.6455 44.0453 65.6461C44.0455 65.6464 44.0456 65.6466 44.0457 65.6468C44.0458 65.6469 44.0458 65.647 44.0459 65.647C44.0459 65.6471 44.0459 65.6472 44.2599 65.5179C44.4739 65.3886 44.4739 65.3887 44.4739 65.3887C44.4739 65.3887 44.4739 65.3887 44.4739 65.3886C44.4739 65.3885 44.4738 65.3884 44.4737 65.3882C44.4734 65.3878 44.473 65.3872 44.4725 65.3863C44.4715 65.3845 44.4698 65.3818 44.4676 65.3781C44.4632 65.3706 44.4564 65.3593 44.4475 65.3441C44.4297 65.3139 44.4033 65.2684 44.369 65.2084C44.3005 65.0884 44.2009 64.9104 44.0775 64.6797C43.8307 64.2182 43.4889 63.5465 43.1104 62.708C42.3531 61.0301 41.4508 58.6884 40.8679 56.03L40.3795 56.1371Z" fill="#0E170D"/>
</svg>
